<svg width="324" height="396" viewBox="0 0 324 396" fill="none" xmlns="http://www.w3.org/2000/svg">
<rect x="4" y="4" width="278" height="352" rx="27" fill="black"/>
<rect x="29" y="29" width="268" height="342" rx="35" stroke="black" stroke-width="10"/>
<rect x="53" y="52" width="266" height="339" rx="56" stroke="black" stroke-width="10"/>
<path d="M89.2439 184.915H101.927C115.976 184.915 123 178.765 123 166.464C123 154.164 115.976 148.013 101.927 148.013H89.2439V184.915ZM89.2439 265H51V117H111.878C128.398 117 141.016 121.318 149.732 129.955C158.577 138.592 163 150.761 163 166.464C163 182.167 158.577 194.337 149.732 202.973C141.016 211.61 128.398 215.928 111.878 215.928H89.2439V265Z" fill="white"/>
<path d="M201.244 206.085L213.927 206.085C227.976 206.085 235 212.235 235 224.536C235 236.836 227.976 242.987 213.927 242.987L201.244 242.987L201.244 206.085ZM201.244 126L163 126L163 274L223.878 274C240.398 274 253.016 269.682 261.732 261.045C270.577 252.408 275 240.239 275 224.536C275 208.833 270.577 196.663 261.732 188.027C253.016 179.39 240.398 175.072 223.878 175.072L201.244 175.072L201.244 126Z" fill="white"/>
<rect width="278" height="352" rx="27" fill="black"/>
<rect x="25" y="25" width="268" height="342" rx="35" stroke="black" stroke-width="10"/>
<rect x="49" y="48" width="266" height="339" rx="56" stroke="black" stroke-width="10"/>
<path d="M85.2439 180.915H97.9268C111.976 180.915 119 174.765 119 162.464C119 150.164 111.976 144.013 97.9268 144.013H85.2439V180.915ZM85.2439 261H47V113H107.878C124.398 113 137.016 117.318 145.732 125.955C154.577 134.592 159 146.761 159 162.464C159 178.167 154.577 190.337 145.732 198.973C137.016 207.61 124.398 211.928 107.878 211.928H85.2439V261Z" fill="white"/>
<path d="M197.244 202.085L209.927 202.085C223.976 202.085 231 208.235 231 220.536C231 232.836 223.976 238.987 209.927 238.987L197.244 238.987L197.244 202.085ZM197.244 122L159 122L159 270L219.878 270C236.398 270 249.016 265.682 257.732 257.045C266.577 248.408 271 236.239 271 220.536C271 204.833 266.577 192.663 257.732 184.027C249.016 175.39 236.398 171.072 219.878 171.072L197.244 171.072L197.244 122Z" fill="white"/>
</svg>